<svg version="1.1" xmlns="http://www.w3.org/2000/svg" style="display: block;" viewBox="0 0 1914 2048" width="1196" height="1280" preserveAspectRatio="none">
<path transform="translate(0,0)" fill="rgb(22,22,22)" d="M 0 0 L 1914 0 L 1914 675.181 L 1914 1368.96 L 1914 2048 L 0 2048 L 0 1371.68 L 0 672.327 L 0 0 z"/>
<path transform="translate(0,0)" fill="rgb(254,254,254)" d="M 1914 1368.96 L 1914 2048 L 0 2048 L 0 1371.68 C 10.5774 1397.34 19.7551 1423.52 32.1026 1448.32 C 42.766 1469.74 53.4938 1491.38 64.3822 1512.7 C 68.1067 1519.98 74.6095 1527.3 78.4544 1534.59 C 101.718 1579.2 132.835 1618.46 162.849 1658.57 C 195.969 1702.83 238.762 1738.85 276.426 1779.16 C 294.106 1798.53 314.767 1814.45 335.401 1830.54 C 420.533 1896.93 517.731 1947.11 619.786 1981.92 C 673.839 2000.93 729.378 2015.41 785.83 2025.22 C 792.632 2026.4 807.782 2026.96 813.107 2028.67 C 837.068 2036.34 859.406 2034.49 884.113 2035.24 C 892.636 2035.55 902.576 2039.66 910.849 2040.21 C 939.401 2042.12 968.694 2042.3 997.222 2040.25 C 1004.88 2039.51 1015.34 2035.03 1022.75 2035.2 C 1088.58 2036.74 1153.38 2026.04 1216 2005.89 C 1225.48 2002.83 1236.5 2000.84 1246.49 1997.79 C 1442.89 1938.67 1617.04 1821.99 1746.41 1662.83 C 1811.92 1582.75 1867.31 1491.3 1903.61 1393.89 C 1906.48 1386.18 1909.49 1377.24 1913.39 1370.07 L 1914 1368.96 z"/>
<path transform="translate(0,0)" fill="rgb(254,254,254)" d="M 0 0 L 1914 0 L 1914 675.181 C 1898.5 640.603 1887.49 605.59 1868.52 572.223 C 1860.12 557.46 1853.09 540.299 1844.84 525.114 C 1809.51 461.308 1766.66 401.969 1717.21 348.369 C 1707.4 337.56 1700.29 325.548 1689.79 314.535 C 1675.29 295.536 1652.74 282.801 1636.63 267.244 C 1599.82 231.688 1558.47 200.571 1516.04 171.844 C 1485.89 151.439 1450.49 133.766 1419.03 115.334 C 1409.13 109.532 1395.7 104.947 1384.93 99.7976 C 1287.62 53.4553 1183.24 23.7553 1076.11 11.9327 C 1064.64 10.5931 1053.7 7.72124 1041.85 6.77853 C 1012.21 4.3558 981.691 4.94513 952.047 4.86457 C 913.487 4.75977 875.909 4.1834 837.975 11.9386 C 831.2 13.3236 821.54 12.6513 814.626 14.0136 C 795.914 17.7 777.444 20.8457 758.558 23.4884 C 724.807 30.3862 691.266 39.5516 658.499 50.0827 C 648.897 53.1684 638.399 54.7939 628.774 58.0067 C 552.968 81.4852 479.563 118.947 412.278 160.597 C 402.666 166.547 391.98 176.011 381.815 182.592 C 359.371 197.121 338.062 213.867 316.864 230.128 C 308.274 236.443 299.975 246.863 291.624 252.957 C 261.085 275.242 235.279 302.712 209.511 330.214 C 202.41 337.793 196.393 348.077 189.328 355.973 C 180.448 365.899 170.82 375.396 162.213 385.579 C 132.973 422.469 106.511 461.615 81.6894 501.581 C 73.1063 515.401 65.2202 533.952 57.037 548.514 C 52.1208 557.262 40.8776 574.321 37.5787 582.777 C 30.3317 601.733 21.8859 620.029 13.6661 638.56 C 8.92341 649.252 5.82824 662.288 0 672.327 L 0 0 z"/>
<path transform="translate(0,0)" fill="rgb(247,226,81)" d="M 1123.21 545.694 C 1117.89 532.694 1111.51 527.275 1103.56 516.628 C 1090.35 498.957 1057.49 472.864 1049.6 453.731 C 1046.25 445.5 1046.29 436.277 1049.71 428.076 C 1053.82 418.188 1063.35 410.86 1073.22 407.406 C 1098.61 398.53 1123.16 425.766 1138.11 442.225 C 1180.25 488.721 1212.24 543.485 1232.04 603.028 C 1236.56 616.907 1244.31 650.262 1251.21 660.72 C 1251.21 650.858 1251.9 636.916 1250.66 627.072 C 1245.89 589.315 1236.62 551.846 1218.51 517.531 C 1206.62 495.003 1162.41 428.368 1219.89 424.452 C 1253.96 422.131 1278.61 461.624 1292.9 488.787 C 1322.19 544.155 1336.7 606.139 1335.04 668.753 C 1332.78 762.85 1287.72 870.895 1219.68 935.113 C 1134.75 1015.26 1120.66 1045.81 1115.48 1161.88 L 808.069 1161.04 C 806.317 1127.28 803.961 1090.18 806.633 1056.44 C 807.612 1044.07 812.154 1026.56 814.369 1014.06 C 821.185 975.579 833.66 944.835 860.265 915.193 C 871.536 902.762 883.988 891.454 897.444 881.429 C 919.161 865.037 948.373 849.095 962.239 826.866 C 976.182 802.207 983.888 787.068 987.279 758.015 C 992.838 714.873 976.521 676.364 946.82 645.486 C 933.415 631.55 910.103 618.791 913.523 596.27 C 914.922 587.422 919.772 579.491 927.01 574.214 C 933.994 569.231 942.724 567.349 951.141 569.011 C 982.478 574.874 1012.72 625.747 1027.31 651.878 C 1028.37 653.777 1032.39 653.845 1034.32 654.061 L 1035.6 654.196 C 1038.13 644.02 1044.47 628.772 1047.81 616.942 C 1053.2 611.53 1062.57 591.175 1068.36 583.579 C 1077.05 572.166 1084.87 568.424 1094.98 559.106 L 1095.65 558.486 C 1098.44 556.703 1117.35 548.794 1123.21 545.694 z"/>
<path transform="translate(0,0)" fill="rgb(254,254,254)" d="M 1123.21 545.694 C 1117.89 532.694 1111.51 527.275 1103.56 516.628 C 1090.35 498.957 1057.49 472.864 1049.6 453.731 C 1046.25 445.5 1046.29 436.277 1049.71 428.076 C 1053.82 418.188 1063.35 410.86 1073.22 407.406 C 1098.61 398.53 1123.16 425.766 1138.11 442.225 C 1180.25 488.721 1212.24 543.485 1232.04 603.028 C 1236.56 616.907 1244.31 650.262 1251.21 660.72 C 1258.74 674.437 1231.1 741.103 1222.11 754.536 C 1203.67 782.1 1175.15 824.481 1141.61 833.655 C 1113.03 841.47 1103 800.709 1105.5 780.141 C 1107.09 736.24 1116.6 693.7 1129.73 651.853 C 1131.63 645.763 1135.21 634.911 1138.63 629.881 C 1140.36 618.972 1146.52 608.132 1154.02 600.119 C 1162.44 579.29 1172.91 566.876 1183.91 547.573 C 1163.22 540.637 1144.61 542.689 1123.21 545.694 z"/>
<path transform="translate(0,0)" fill="rgb(22,22,22)" d="M 1154.02 600.119 C 1170.88 637.717 1187.92 712.309 1171.74 751.794 C 1167.08 729.858 1163.23 703.339 1157.59 682.364 C 1153.17 665.935 1142.54 648.366 1138.63 629.881 C 1140.36 618.972 1146.52 608.132 1154.02 600.119 z"/>
<path transform="translate(0,0)" fill="rgb(254,254,254)" d="M 962.239 826.866 C 976.182 802.207 983.888 787.068 987.279 758.015 C 992.838 714.873 976.521 676.364 946.82 645.486 C 933.415 631.55 910.103 618.791 913.523 596.27 C 914.922 587.422 919.772 579.491 927.01 574.214 C 933.994 569.231 942.724 567.349 951.141 569.011 C 982.478 574.874 1012.72 625.747 1027.31 651.878 C 1028.37 653.777 1032.39 653.845 1034.32 654.061 L 1035.6 654.196 C 1032.29 669.033 1027.75 683.724 1024.61 698.613 C 1015.43 742.071 1004.5 784.605 975.417 819.511 C 972.756 822.706 966.692 828.261 962.239 826.866 z"/>
<path transform="translate(0,0)" fill="rgb(247,226,81)" d="M 933.458 292.427 C 1009.47 287.256 1082.08 303.605 1147.93 340.428 C 1168.08 351.699 1208.33 371.223 1202.98 400.059 C 1200.09 415.633 1180.95 429.101 1165.52 423.161 C 1152.47 418.013 1142.01 407.542 1129.92 400.087 C 1098.96 380.949 1065.24 366.694 1029.94 357.824 C 953.853 338.694 867.355 352.375 800.407 392.528 C 730.601 434.396 675.736 500.872 656.813 580.943 C 641.887 644.103 641.746 712.391 665.993 773.607 C 673.312 792.084 683.145 807.926 693.314 824.754 C 702.844 840.776 713.942 855.81 726.446 869.636 C 744.847 890.112 806.079 942.24 809.375 965.596 C 810.464 973.306 807.196 981.196 802.295 987.028 C 797.322 992.945 790.541 997.146 782.687 997.457 C 772.544 997.858 763.824 991.943 756.559 985.497 C 745.63 975.799 735.774 964.674 725.302 954.466 C 709.549 939.111 693.507 924.039 679.151 907.332 C 624.294 843.489 594.073 767.663 589.328 683.759 C 587.873 658.019 588.023 631.909 591.722 606.354 C 601.856 536.343 637.075 467.443 684.049 415.013 C 745.817 346.071 840.64 297.59 933.458 292.427 z"/>
<path transform="translate(0,0)" fill="rgb(254,254,254)" d="M 814.445 1181.15 C 821.46 1180.79 828.368 1180.74 835.388 1180.74 C 923.992 1180.71 1012.6 1180.65 1101.2 1180.73 C 1104.82 1180.74 1111.81 1181.09 1114.89 1182.56 C 1127.56 1188.63 1135.26 1206.9 1128.27 1219.72 C 1124.05 1227.36 1117.02 1230.29 1109.23 1232.82 C 1099.25 1235.51 1072.36 1234.82 1061.05 1234.83 L 992.4 1234.87 L 886.502 1234.87 C 871.875 1234.86 820.73 1236.42 810.246 1231.82 C 803.442 1228.9 798.123 1223.34 795.52 1216.41 C 792.842 1209.16 793.307 1201.12 796.803 1194.23 C 800.715 1186.46 806.508 1183.6 814.445 1181.15 z"/>
<path transform="translate(0,0)" fill="rgb(254,254,254)" d="M 844.748 1252.55 C 902.683 1250.57 965.075 1251.76 1023.41 1252.18 L 1075.66 1252.5 C 1097 1252.6 1127.99 1247.33 1130.65 1276.49 C 1131.34 1283.31 1129.2 1290.1 1124.74 1295.3 C 1114.95 1306.55 1093.65 1305.03 1078.84 1305.75 C 1019.82 1306.84 960.79 1307 901.764 1306.24 C 874.491 1306.1 846.714 1306.84 819.5 1305.03 C 788.511 1302.97 782.965 1257.97 815.774 1253.73 C 824.898 1252.55 835.446 1252.77 844.748 1252.55 z"/>
<path transform="translate(0,0)" fill="rgb(247,226,81)" d="M 1177.25 1676.13 L 1285.11 1676.09 C 1285 1679.9 1284.59 1682.25 1285.82 1685.78 C 1288.55 1687.92 1292.49 1687.28 1296.16 1687.24 L 1296.11 1719.81 L 1285.23 1719.95 C 1285.14 1726.95 1285.21 1734.07 1285.2 1741.09 C 1288.49 1741.06 1293.74 1740.5 1295.79 1742.45 C 1296.75 1750.82 1296.2 1764.95 1296.11 1773.77 C 1292.23 1773.65 1290.24 1773.31 1286.6 1774.45 C 1284.42 1778 1285.11 1779.91 1284.98 1784.53 C 1249.62 1783.84 1212.59 1784.41 1177.1 1784.41 L 1177.25 1676.13 z"/>
<path transform="translate(0,0)" fill="rgb(22,22,22)" d="M 1220.74 1698.05 L 1252.71 1698.08 L 1252.66 1719.7 L 1220.7 1719.82 C 1220.64 1712.59 1220.72 1705.28 1220.74 1698.05 z"/>
<path transform="translate(0,0)" fill="rgb(22,22,22)" d="M 1220.87 1741.29 C 1231.48 1741.26 1242.1 1741.31 1252.71 1741.45 L 1252.68 1762.36 C 1242.04 1762.34 1231.39 1762.41 1220.75 1762.55 C 1220.6 1755.42 1220.75 1748.42 1220.87 1741.29 z"/>
<path transform="translate(0,0)" fill="rgb(254,254,254)" d="M 1047.81 616.942 C 1041.28 597.923 1012.33 572.632 997.712 557.854 C 983.993 544.215 964.756 530.588 957.425 512.221 C 944.615 482.73 983.784 454.372 1009.07 470.592 C 1037.06 488.544 1061.2 519.83 1081.91 545.54 C 1087 551.849 1088.17 554.786 1095.65 558.486 L 1094.98 559.106 C 1084.87 568.424 1077.05 572.166 1068.36 583.579 C 1062.57 591.175 1053.2 611.53 1047.81 616.942 z"/>
<path transform="translate(0,0)" fill="rgb(247,226,81)" d="M 471.896 1676.11 L 515.011 1676.03 L 514.981 1784.57 C 501.156 1784.14 485.805 1784.41 471.856 1784.36 L 471.925 1741.32 L 439.852 1741.18 C 439.556 1755.3 439.772 1770.17 439.753 1784.35 L 396.113 1784.41 L 396.126 1676.1 L 439.809 1676.09 L 439.796 1719.77 L 471.874 1719.82 L 471.896 1676.11 z"/>
<path transform="translate(0,0)" fill="rgb(247,226,81)" d="M 761.271 1482.06 L 804.949 1482.08 L 804.983 1590.12 L 761.345 1590.14 C 761.145 1575.89 761.314 1561.27 761.312 1546.98 L 729.2 1546.99 L 729.052 1590.13 L 685.966 1590.13 L 685.876 1482.11 C 700.114 1481.9 714.808 1482.11 729.084 1482.12 L 729.215 1525.04 L 761.275 1524.96 L 761.271 1482.06 z"/>
<path transform="translate(0,0)" fill="rgb(254,254,254)" d="M 894.977 1321.35 C 917.509 1319.99 944.006 1321.41 966.949 1320.96 C 987.75 1320.89 1006.99 1320.82 1027.9 1321.36 C 1049.45 1321.93 1065.64 1339.69 1053.94 1360.57 C 1049.32 1368.83 1042.05 1371.73 1033.15 1374.01 C 1020.73 1374.98 1006.58 1374.78 994.017 1374.57 C 961.93 1374.1 934.145 1375.96 901.689 1374.92 C 874.739 1374.06 858.652 1357.58 873.114 1330.43 C 876.541 1324 887.994 1322.18 894.977 1321.35 z"/>
<path transform="translate(0,0)" fill="rgb(247,226,81)" d="M 1058.56 1676.13 L 1141.99 1675.93 C 1145.73 1675.93 1153.26 1675.58 1155.79 1678.11 C 1155.46 1681.54 1155.18 1682.17 1156.64 1685.36 C 1160.59 1687.91 1161.49 1687.13 1166.64 1687.33 L 1166.4 1719.9 L 1123.34 1719.98 C 1123.11 1712.97 1123.29 1705.17 1123.29 1698.1 L 1091.06 1698.04 L 1091.04 1762.53 C 1098.43 1762.45 1116.75 1762.9 1123.23 1761.97 L 1123.22 1741.05 L 1166.53 1741.06 L 1166.35 1773.61 C 1163.12 1773.63 1160.61 1773.31 1157.74 1774.69 C 1155.06 1777.8 1156 1779.06 1155.11 1783.37 C 1144.32 1786.53 1075.81 1784.37 1058.7 1784.47 C 1058.73 1780.9 1059.15 1778.14 1057.61 1774.99 C 1054.96 1773.22 1050.84 1773.67 1047.45 1773.65 L 1047.35 1687.46 C 1050.84 1687.39 1054.44 1687.72 1057.4 1686.1 C 1059.19 1683.47 1058.63 1679.52 1058.56 1676.13 z"/>
<path transform="translate(0,0)" fill="rgb(254,254,254)" d="M 635.428 1694.48 C 647.094 1694.46 719.798 1693.04 723.63 1696.17 C 723.67 1699.18 723.548 1699.82 724.316 1702.79 C 727.185 1703.74 728.703 1703.62 731.677 1703.72 L 732.858 1705.25 C 733.261 1709.05 733.864 1727.3 731.764 1730 C 728.682 1729.88 728.319 1729.91 725.27 1730.39 C 723.686 1733.46 722.772 1745.78 725.411 1748.15 C 728.321 1748.15 729.097 1748.16 732.092 1748.6 C 733.814 1751.32 733.594 1772.44 731.825 1774.97 C 719.278 1775.98 727.413 1778.27 722.48 1783.85 C 699.678 1785.76 657.989 1784.41 633.796 1784.35 C 633.745 1760.7 633.355 1721.08 634.049 1695.95 C 634.509 1695.46 634.969 1694.97 635.428 1694.48 z"/>
<path transform="translate(0,0)" fill="rgb(22,22,22)" d="M 670.084 1748.21 L 696.69 1748.25 L 696.825 1766.34 L 669.993 1766.47 L 670.084 1748.21 z"/>
<path transform="translate(0,0)" fill="rgb(22,22,22)" d="M 670.182 1712.46 L 696.736 1712.65 L 696.606 1730.32 C 687.792 1730.2 678.823 1730.26 669.993 1730.24 C 669.96 1724.31 670.024 1718.38 670.182 1712.46 z"/>
<path transform="translate(0,0)" fill="rgb(254,254,254)" d="M 537.352 1694.51 L 584.787 1694.35 C 592.806 1694.32 606.782 1693.7 614.164 1695.04 C 616.326 1697.01 615.608 1698.18 615.907 1702.16 C 619.372 1705.65 619.808 1701.72 624.477 1704.66 C 625.428 1712.27 626.093 1772.13 623.451 1775.07 C 620.585 1775.15 618.24 1774.78 616.159 1776.52 C 615.96 1778.83 615.869 1780.7 615.797 1783 L 614.094 1784.35 C 603.845 1784.38 539.598 1785.63 535.413 1782.91 L 535.061 1776.77 C 532.869 1774.61 531.845 1775.33 527.799 1775.04 C 523.946 1771.62 526.099 1714.97 526.332 1705.41 C 526.414 1702.04 532.235 1705.18 535.048 1701.64 C 534.713 1698.59 534.485 1698.32 535.376 1695.32 L 537.352 1694.51 z"/>
<path transform="translate(0,0)" fill="rgb(22,22,22)" d="M 563.408 1712.46 L 588.909 1712.61 C 588.964 1720.46 589.904 1762.93 587.865 1766.43 L 561.919 1766.45 C 561.894 1759.05 560.721 1715.7 563.408 1712.46 z"/>
<path transform="translate(0,0)" fill="rgb(247,226,81)" d="M 1317.25 1676.21 C 1352.01 1675.25 1390.76 1676.12 1425.83 1676.13 L 1425.74 1698.01 L 1350.1 1698.05 L 1350.14 1719.89 C 1361.02 1719.78 1371.9 1719.78 1382.78 1719.89 L 1382.74 1741.26 L 1350.14 1741.17 L 1350.11 1762.63 C 1375.34 1762.19 1400.58 1762.2 1425.82 1762.66 L 1425.71 1784.4 L 1317.5 1784.5 C 1317.53 1780.69 1317.69 1779.22 1316.83 1775.56 C 1313.57 1773.21 1311.26 1773.83 1306.72 1773.51 C 1306.88 1763.57 1305.96 1690.65 1308.09 1687.63 C 1311.63 1687.48 1313.02 1687.74 1316.01 1685.82 C 1318 1683.01 1317.38 1679.77 1317.25 1676.21 z"/>
<path transform="translate(0,0)" fill="rgb(254,254,254)" d="M 1139.47 1499.96 C 1148.35 1499.93 1164.54 1498.96 1173.89 1500.32 C 1177.31 1500.81 1174.04 1508.54 1176.87 1508.91 C 1180.92 1509.43 1181.58 1507.56 1184.55 1510.25 C 1184.45 1523.81 1187.27 1514.39 1193.59 1519.22 C 1193.49 1522.03 1193.06 1524.25 1194.32 1526.69 C 1197.45 1527.54 1197.64 1527.27 1200.75 1526.64 C 1203.17 1524.01 1202.35 1524.59 1202.27 1519.72 C 1204.88 1516.77 1205.01 1519.07 1210.83 1517.39 C 1211.73 1514.76 1211.49 1513.02 1211.45 1510.26 C 1213.93 1508.12 1214.91 1508.92 1219.22 1508.83 C 1222.06 1505.18 1218.6 1503.98 1221.74 1500.43 C 1228.42 1499.06 1248.59 1499.86 1256.61 1499.97 L 1256.59 1590.07 L 1220.33 1590.12 C 1220.05 1576.84 1220.4 1563.34 1220.32 1550.04 C 1220.3 1547.05 1219.09 1546.4 1217.28 1544.77 C 1213.53 1544.6 1215.21 1544.17 1212.04 1546 C 1211.41 1548.88 1211.56 1550.03 1211.64 1552.91 C 1209.11 1554.95 1208.15 1554.18 1203.94 1554.25 L 1202.68 1555.71 C 1202.47 1558.84 1202.78 1561.25 1200.8 1563.5 C 1198.31 1564.24 1197.58 1563.73 1195.02 1563.04 C 1192.68 1560.75 1193.48 1559.9 1193.17 1555.47 C 1190.4 1551.81 1188.66 1556.32 1184.44 1552.75 C 1184.44 1549.94 1184.78 1547.74 1183.39 1545.38 C 1179.9 1544.94 1180.14 1544.89 1176.81 1545.99 C 1174.15 1550.72 1175.67 1582.37 1175.66 1590.08 L 1139.44 1590.08 L 1139.47 1499.96 z"/>
<path transform="translate(0,0)" fill="rgb(254,254,254)" d="M 895.397 1694.47 C 907.265 1694.36 919.133 1694.41 931 1694.61 C 930.989 1701.64 930.02 1734.99 932.219 1738.6 C 942.399 1742.94 938.35 1733.75 941.027 1730.48 C 943.864 1730.36 946.134 1730.6 948.514 1729.18 C 948.565 1725.26 948.476 1725.42 949.962 1721.83 C 952.982 1719.4 951.227 1720.12 955.634 1720.23 C 958.992 1716.44 957.76 1700.35 957.659 1694.62 C 969.752 1694.39 981.848 1694.37 993.942 1694.56 L 993.952 1767.5 L 993.921 1784.36 C 981.932 1784.49 969.63 1784.3 957.615 1784.26 C 957.538 1776.22 959.51 1765.47 956.337 1758.95 C 953.118 1756.69 954.917 1757.37 950.593 1757.35 C 948.247 1759.76 949.11 1760.46 948.977 1765.06 C 945.167 1768.45 944.008 1764.53 939.993 1767.88 L 939.891 1774.13 C 937.573 1776.17 936.341 1775.39 932.292 1775.48 C 928.808 1779.06 932.693 1779.35 929.7 1783.9 C 923.988 1785.24 901.945 1784.46 894.662 1784.38 C 894.63 1770.99 893.08 1702.22 895.397 1694.47 z"/>
<path transform="translate(0,0)" fill="rgb(254,254,254)" d="M 932.273 1499.97 C 953.575 1499.91 991.959 1498.66 1011.89 1500.3 C 1013.9 1502.35 1013.25 1503.93 1013.51 1507.7 C 1016.82 1511.01 1017.46 1507.11 1022.01 1510.05 C 1023.21 1515.99 1022.57 1529.61 1022.47 1536.25 L 986.588 1536.27 L 986.771 1518.07 L 959.826 1518.01 C 959.399 1535.52 959.762 1554.35 959.781 1571.96 L 986.571 1571.92 L 986.655 1554.03 L 1022.4 1554.01 L 1022.62 1566.02 C 1022.97 1590.47 1019.48 1576.08 1013.47 1582.26 C 1013.32 1585.44 1013.4 1586.09 1012.57 1589.23 C 1007.73 1591.04 942.561 1590.42 934.303 1589.75 C 930.744 1586.71 934.721 1586.15 931.559 1581.04 L 925.098 1580.5 C 922.238 1577.73 922.321 1512.44 924.991 1509.19 C 927.881 1508.93 928.342 1508.89 931.12 1508.1 C 933.158 1504.6 932.396 1504.79 932.273 1499.97 z"/>
<path transform="translate(0,0)" fill="rgb(254,254,254)" d="M 742.756 1694.49 L 777.904 1694.55 L 777.896 1730.31 C 785.644 1730.22 827.172 1728.58 831.099 1731.67 C 831.405 1733.86 831.663 1736.05 831.873 1738.25 L 833.274 1739.28 C 836.049 1739.19 838.215 1738.72 840.43 1740.2 C 841.526 1746.9 840.934 1767.6 840.864 1775.52 L 831.933 1775.51 C 831.965 1779.32 832.15 1780.14 831.01 1783.68 C 825.635 1785.6 752.935 1784.34 741.88 1784.31 C 741.855 1773.01 740.881 1699.09 742.756 1694.49 z"/>
<path transform="translate(0,0)" fill="rgb(22,22,22)" d="M 777.878 1748.16 L 804.861 1748.3 L 804.856 1766.29 L 777.918 1766.63 L 777.878 1748.16 z"/>
<path transform="translate(0,0)" fill="rgb(247,226,81)" d="M 1436.06 1676.18 C 1471.82 1675.65 1508.74 1676.11 1544.6 1676.11 L 1544.38 1698.06 L 1512.06 1698.1 L 1512.06 1751.5 L 1511.99 1784.4 L 1468.74 1784.44 C 1468.2 1756.21 1468.69 1726.39 1468.69 1698.02 L 1436.03 1698.07 L 1436.06 1676.18 z"/>
<path transform="translate(0,0)" fill="rgb(254,254,254)" d="M 824.437 1499.93 L 914.748 1499.97 L 914.76 1518.02 L 851.895 1518.02 L 851.852 1536.09 L 878.761 1536.08 L 878.531 1554.2 L 851.85 1554.12 L 851.938 1571.93 L 914.641 1571.94 L 914.778 1590.06 C 889.587 1590.07 864.402 1590.11 839.211 1590.27 C 835.228 1590.29 827.234 1591 824.639 1588.19 C 824.659 1585.5 825.114 1583.05 823.57 1581.07 C 820.657 1580.97 818.503 1581.22 816.041 1579.76 C 814.712 1574.38 814.706 1514.12 816.425 1509.92 L 822.434 1508.11 C 825.177 1505.2 824.226 1505.26 824.437 1499.93 z"/>
<path transform="translate(0,0)" fill="rgb(254,254,254)" d="M 1040.73 1499.97 L 1130.8 1500.01 L 1130.85 1518.01 L 1067.69 1518.07 L 1067.69 1536.05 L 1094.41 1536.07 L 1094.33 1554.18 L 1067.82 1554.14 C 1067.7 1560.14 1067.32 1566.02 1068.22 1571.94 L 1130.76 1571.96 L 1130.8 1590.06 L 1074.18 1590.23 C 1064.16 1590.26 1053.22 1590.6 1043.31 1589.75 C 1038.44 1589.33 1042.87 1585.11 1039.6 1581.01 C 1036.65 1580.95 1034.49 1581.28 1032.06 1579.72 C 1030.54 1574.64 1030.73 1514.22 1032.41 1509.85 C 1035.22 1509.21 1036.6 1508.81 1039.34 1507.89 C 1041.53 1504.72 1040.73 1504.71 1040.73 1499.97 z"/>
<path transform="translate(0,0)" fill="rgb(254,254,254)" d="M 851.502 1694.49 C 862.964 1694.39 874.427 1694.42 885.889 1694.58 C 885.899 1705.29 886.661 1781.29 884.834 1784.35 C 873.217 1784.46 861.43 1784.32 849.798 1784.27 C 849.763 1761.18 849.414 1720.67 850.08 1695.95 C 850.554 1695.46 851.028 1694.97 851.502 1694.49 z"/>
<path transform="translate(0,0)" fill="rgb(247,226,81)" d="M 536.833 805.229 C 553.298 803.533 551.66 812.715 550.823 825.685 C 540.95 831.189 530.996 832.165 521.492 836.272 C 500.665 845.272 480.076 853.592 458.364 860.391 C 452.33 859.355 442.005 856.49 442.422 850.027 C 443.641 831.163 491.21 822.175 504.809 815.965 C 514.578 811.505 529.547 806.717 536.833 805.229 z"/>
<path transform="translate(0,0)" fill="rgb(247,226,81)" d="M 733.898 1039.1 C 736.239 1039.03 738.668 1038.91 741.008 1039.1 C 743.521 1039.3 745.899 1040.39 747.344 1042.52 C 748.953 1044.9 749.141 1047.53 748.744 1050.27 C 746.52 1065.64 706.936 1133.32 695.292 1142.28 C 685.407 1140.81 676.734 1133.77 682.235 1123.8 C 691.642 1106.75 719.342 1046.35 733.898 1039.1 z"/>
<path transform="translate(0,0)" fill="rgb(247,226,81)" d="M 545.125 308.879 C 562.29 308.873 579.874 328.739 592.669 339.158 C 604.931 349.145 620.948 360.689 629.057 374.326 C 633.027 381.001 627.559 385.401 622.904 388.899 C 621.838 388.975 620.768 388.999 619.699 388.973 C 616.475 388.923 613.226 388.468 610.461 386.752 C 603.634 382.514 596.772 376.17 590.454 371.047 C 576.89 360.047 561.66 349.238 549.384 336.895 C 545.163 332.651 536.869 323.373 537.908 317.297 C 538.675 312.806 541.611 311.368 545.125 308.879 z"/>
<path transform="translate(0,0)" fill="rgb(247,226,81)" d="M 1373.49 307.927 C 1378.83 307.657 1381.44 308.616 1385.51 312.14 C 1389.02 319.173 1384.71 327.176 1379.49 332.172 C 1363.06 347.881 1344.11 360.938 1327.38 376.371 C 1321.79 381.535 1316.69 386.151 1309.93 389.717 C 1304.33 389.081 1297.66 388.606 1294.49 383.559 C 1290.94 368.002 1320.07 349.146 1330.3 340.701 C 1343.55 329.769 1357.6 314.425 1373.49 307.927 z"/>
<path transform="translate(0,0)" fill="rgb(247,226,81)" d="M 1305.56 938.877 C 1307.17 939.043 1308.58 939.315 1310.12 939.836 C 1314.37 941.279 1367.38 984.924 1373.71 990.908 C 1377.88 994.858 1381.94 999.297 1384.49 1004.49 C 1386.07 1007.71 1387.43 1011.84 1385.81 1015.31 C 1384.1 1018.95 1380.52 1019.64 1377.01 1020.49 C 1369.39 1018.18 1365.59 1016.87 1358.84 1012.09 C 1350.47 1006.18 1343.44 999.256 1335.48 992.599 C 1323.4 982.491 1308.6 973.159 1298.87 960.719 C 1295.92 956.94 1294.76 949.873 1293.85 945.128 C 1298.71 941.859 1300.32 941.144 1305.56 938.877 z"/>
<path transform="translate(0,0)" fill="rgb(247,226,81)" d="M 1228.3 187.992 C 1253.47 186.257 1240.42 212.455 1232.65 223.296 C 1221.14 239.343 1204.14 279.67 1189.31 290.412 C 1166.85 288.874 1174.17 271.328 1182.53 259.185 C 1193.72 242.934 1213.43 197.764 1228.3 187.992 z"/>
<path transform="translate(0,0)" fill="rgb(247,226,81)" d="M 691.147 187.923 C 706.825 190.946 718.314 219.639 725.862 232.315 C 732.393 243.283 750.386 270.2 749.529 282.113 C 747.259 287.272 743.824 288.272 738.687 290.349 C 733.023 288.996 728.425 285.912 725.552 281.043 C 718.228 268.635 678.904 207.35 680.201 197.246 C 682.812 191.791 685.684 190.546 691.147 187.923 z"/>
<path transform="translate(0,0)" fill="rgb(247,226,81)" d="M 1379.52 805.104 C 1398.33 804.06 1459.55 830.982 1478.07 840.178 C 1482.59 842.42 1479.23 854.474 1474.91 858.262 C 1450.28 858.846 1398.45 835.638 1374.85 824.774 C 1369.03 822.098 1374.5 809.192 1379.52 805.104 z"/>
<path transform="translate(0,0)" fill="rgb(247,226,81)" d="M 614.073 941.199 C 621.892 940.539 633.463 940.346 628.897 952.64 C 623.037 968.413 605.727 978.765 593.052 988.973 C 579.588 999.816 566.618 1012.74 550.853 1020.07 C 548.643 1020.46 544.43 1021.12 543.054 1019.89 C 531.179 1008.96 539.907 998.384 550.334 991.355 C 568.693 978.978 594.607 949.564 614.073 941.199 z"/>
<path transform="translate(0,0)" fill="rgb(247,226,81)" d="M 1468.08 468.959 C 1480.26 471.159 1484.24 482.137 1477.69 487.815 C 1461.18 502.146 1427.2 506.026 1407.23 516.667 C 1400.97 520.002 1390.41 523.182 1385.51 524.012 C 1368.73 520.251 1366.96 504.902 1379.28 499.726 C 1407.16 488.005 1439.98 480.236 1468.08 468.959 z"/>
<path transform="translate(0,0)" fill="rgb(247,226,81)" d="M 1181.06 1038.9 C 1187.69 1038.85 1191.82 1038.54 1196.22 1044.3 C 1206.08 1057.22 1213.24 1071.86 1221.28 1085.92 C 1227.82 1097.82 1236.1 1109.2 1241.33 1121.74 C 1244.68 1129.78 1244.21 1134.33 1237.28 1139.55 C 1233.29 1140.11 1228.32 1141.25 1224.95 1139.11 C 1216.61 1127.84 1175.17 1060.67 1174.98 1051.1 C 1174.88 1045.79 1177.52 1042.52 1181.06 1038.9 z"/>
<path transform="translate(0,0)" fill="rgb(247,226,81)" d="M 452.351 468.732 C 462.76 469.082 541.788 498.304 551.918 505.892 C 551.784 507.777 551.602 509.657 551.374 511.532 C 550.549 518.037 549.676 520.215 544.558 524.111 C 542.045 524.079 539.542 524.068 537.053 523.657 C 525.991 521.833 450.355 493.991 445.793 487.531 C 443.944 484.911 442.894 482.121 443.617 478.868 C 444.736 473.826 448.251 471.398 452.351 468.732 z"/>
<path transform="translate(0,0)" fill="rgb(247,226,81)" d="M 1053.08 125.077 C 1068.64 124.557 1069.01 134.143 1066.57 147.117 C 1061.3 175.146 1058.11 204.451 1049.64 231.641 C 1049.12 233.302 1046.07 235.691 1044.67 236.736 C 1039.99 237.111 1033.34 237.865 1031.47 231.768 C 1027.58 218.399 1030.54 202.243 1032.82 188.658 C 1036.13 168.906 1040.68 148.773 1046.51 129.601 C 1047.31 126.98 1050.85 126.031 1053.08 125.077 z"/>
<path transform="translate(0,0)" fill="rgb(247,226,81)" d="M 866.076 123.829 C 867.234 123.859 868.392 123.881 869.547 123.982 C 872.526 124.243 874.448 125.176 876.284 127.591 C 881.996 135.106 896.319 215.183 894.615 225.907 C 893.72 231.535 891.59 233.632 887.036 236.806 C 885.205 236.784 883.284 236.799 881.479 236.474 C 878.66 235.965 876.463 233.77 875.025 231.417 C 867.276 218.743 855.261 144.986 858.692 130.937 C 859.657 126.986 862.815 125.689 866.076 123.829 z"/>
<path transform="translate(0,0)" fill="rgb(247,226,81)" d="M 418.63 652.12 C 449.854 652.131 487.117 650.478 518.229 653.927 C 526.375 654.83 529.573 671.888 518.764 674.392 C 487.764 677.048 454.167 675.537 422.901 675.656 C 408.174 675.712 408.399 660.023 418.63 652.12 z"/>
<path transform="translate(0,0)" fill="rgb(247,226,81)" d="M 1416.55 651.289 C 1430.63 650.355 1448.91 650.933 1463.01 651.793 C 1475.05 652.526 1511.63 646.975 1513.16 662.976 C 1513.46 666.223 1512.37 669.445 1510.16 671.841 C 1506.92 675.316 1503.75 674.87 1498.98 675.147 C 1485.75 675.201 1410.01 677.442 1403.87 673.707 C 1401.5 672.268 1399.87 670.233 1399.17 667.544 C 1398.19 663.831 1399.3 660.299 1401.45 657.213 C 1404.86 652.33 1411.17 652.028 1416.55 651.289 z"/>
<path transform="translate(0,0)" fill="rgb(254,254,254)" d="M 912.908 1658.27 C 917.449 1658.14 928.609 1656.79 930.82 1661.32 C 931.651 1663.02 929.961 1664.1 932.78 1666.68 C 939.601 1667.58 950.853 1668.38 956.757 1664.67 C 960.432 1655.56 966.809 1658.06 975.852 1658.33 C 975.977 1664.22 975.902 1670.1 975.626 1675.97 C 971.009 1676.11 970.824 1675.36 967.545 1677.47 C 966.903 1679.82 966.798 1681.21 966.72 1683.66 L 965.064 1684.92 C 959.029 1685.7 926.259 1686.69 922.246 1684 L 922.014 1677.9 C 919.671 1674.78 919.356 1677.19 913.307 1675.6 C 912.07 1672.12 912.772 1662.53 912.908 1658.27 z"/>
<path transform="translate(0,0)" fill="rgb(254,254,254)" d="M 1094.18 1455.12 L 1121.83 1455.13 L 1121.75 1482.19 L 1094.26 1482.15 L 1094.18 1455.12 z"/>
<path transform="translate(0,0)" fill="rgb(254,254,254)" d="M 1040.66 1455.09 L 1067.73 1455.12 L 1067.68 1482.07 C 1060.03 1482.54 1048.56 1482.18 1040.62 1482.18 L 1040.66 1455.09 z"/>
</svg>