<?xml version="1.0" encoding="utf-8"?>
<svg xmlns="http://www.w3.org/2000/svg" viewBox="0 0 500 500">
  <path d="M -8.003 -4.293 L 502.04 -4.293 L 502.04 162.065 L 502.04 332.996 L 502.04 500.294 L -8.003 500.294 L -8.003 333.669 L -8.003 161.363 L -8.003 -4.293 Z" style="stroke-width: 1; fill: rgb(31, 31, 31); fill-opacity: 0;"/>
  <path fill="rgb(247,226,81)" d="M 308.647 164.871 C 306.807 160.401 304.587 158.531 301.827 154.871 C 297.247 148.781 285.847 139.811 283.107 133.221 C 281.947 130.391 281.957 127.211 283.147 124.391 C 284.567 120.981 287.877 118.461 291.297 117.271 C 300.117 114.221 308.637 123.591 313.817 129.261 C 328.447 145.261 339.547 164.111 346.417 184.611 C 347.987 189.391 350.677 200.861 353.067 204.471 C 353.067 201.071 353.307 196.271 352.887 192.881 C 351.227 179.891 348.007 166.991 341.717 155.181 C 337.597 147.421 322.247 124.481 342.197 123.141 C 354.017 122.341 362.577 135.941 367.537 145.281 C 377.697 164.341 382.737 185.681 382.157 207.231 C 381.377 239.621 365.737 276.811 342.127 298.917 C 312.657 326.505 307.767 337.02 305.967 376.973 L 199.286 376.684 C 198.679 365.063 197.862 352.293 198.788 340.679 C 199.128 336.421 200.704 330.394 201.473 326.091 C 203.839 312.846 208.168 302.264 217.4 292.064 C 221.312 287.78 225.633 283.89 230.303 280.441 C 237.839 274.801 247.977 269.311 252.787 261.661 C 257.627 253.171 260.297 247.951 261.477 237.951 C 263.407 223.111 257.747 209.851 247.437 199.221 C 242.785 194.431 234.696 190.041 235.882 182.291 C 236.368 179.241 238.051 176.511 240.563 174.691 C 242.986 172.971 246.017 172.321 248.937 172.901 C 259.817 174.921 270.307 192.431 275.367 201.421 C 275.737 202.071 277.137 202.101 277.807 202.171 L 278.247 202.221 C 279.127 198.721 281.327 193.471 282.487 189.401 C 284.357 187.531 287.607 180.531 289.617 177.921 C 292.627 173.991 295.347 172.701 298.857 169.491 L 299.087 169.271 C 300.057 168.661 306.617 165.941 308.647 164.871 Z" style="stroke-width: 1;"/>
  <path fill="rgb(254,254,254)" d="M 308.647 164.871 C 306.807 160.401 304.587 158.531 301.827 154.871 C 297.247 148.781 285.847 139.811 283.107 133.221 C 281.947 130.391 281.957 127.211 283.147 124.391 C 284.567 120.981 287.877 118.461 291.297 117.271 C 300.117 114.221 308.637 123.591 313.817 129.261 C 328.447 145.261 339.547 164.111 346.417 184.611 C 347.987 189.391 350.677 200.861 353.067 204.471 C 355.677 209.191 346.097 232.131 342.967 236.761 C 336.577 246.251 326.677 260.831 315.037 263.991 C 305.117 266.681 301.637 252.651 302.507 245.571 C 303.057 230.461 306.357 215.821 310.917 201.421 C 311.577 199.321 312.817 195.581 313.997 193.861 C 314.607 190.101 316.737 186.361 319.347 183.611 C 322.267 176.441 325.897 172.171 329.717 165.521 C 322.537 163.131 316.077 163.831 308.647 164.871 Z" style="stroke-width: 1;"/>
  <path fill="rgb(22,22,22)" d="M 319.347 183.611 C 325.197 196.551 331.107 222.231 325.487 235.811 C 323.877 228.261 322.537 219.141 320.577 211.921 C 319.047 206.261 315.357 200.211 313.997 193.861 C 314.607 190.101 316.737 186.361 319.347 183.611 Z" style="stroke-width: 1;"/>
  <path fill="rgb(254,254,254)" d="M 252.787 261.661 C 257.627 253.171 260.297 247.951 261.477 237.951 C 263.407 223.111 257.747 209.851 247.437 199.221 C 242.785 194.431 234.696 190.041 235.882 182.291 C 236.368 179.241 238.051 176.511 240.563 174.691 C 242.986 172.971 246.017 172.321 248.937 172.901 C 259.817 174.921 270.307 192.431 275.367 201.421 C 275.737 202.071 277.137 202.101 277.807 202.171 L 278.247 202.221 C 277.097 207.331 275.527 212.381 274.437 217.511 C 271.247 232.471 267.457 247.111 257.357 259.131 C 256.437 260.221 254.337 262.131 252.787 261.661 Z" style="stroke-width: 1;"/>
  <path fill="rgb(247,226,81)" d="M 242.8 77.701 C 269.177 75.921 294.377 81.541 317.227 94.211 C 324.217 98.101 338.197 104.821 336.337 114.741 C 335.327 120.101 328.687 124.741 323.337 122.701 C 318.807 120.921 315.177 117.321 310.977 114.751 C 300.237 108.161 288.537 103.261 276.287 100.211 C 249.877 93.621 219.861 98.331 196.628 112.151 C 172.403 126.561 153.363 149.451 146.797 177.011 C 141.616 198.751 141.568 222.251 149.983 243.321 C 152.522 249.681 155.935 255.141 159.463 260.931 C 162.77 266.441 166.622 271.621 170.961 276.381 C 177.347 283.43 198.596 301.37 199.74 309.41 C 200.118 312.064 198.984 314.779 197.283 316.787 C 195.557 318.824 193.204 320.269 190.478 320.376 C 186.959 320.514 183.932 318.479 181.412 316.26 C 177.619 312.922 174.198 309.092 170.564 305.579 C 165.098 300.293 159.531 295.106 154.548 289.357 C 135.512 267.381 125.024 241.281 123.376 212.401 C 122.873 203.531 122.925 194.551 124.209 185.751 C 127.725 161.651 139.947 137.941 156.248 119.891 C 177.683 96.161 210.59 79.481 242.8 77.701 Z" style="stroke-width: 1;"/>
  <path fill="rgb(254,254,254)" d="M 201.5 383.606 C 203.934 383.482 206.331 383.465 208.767 383.465 C 239.515 383.455 270.267 383.434 301.007 383.461 C 302.267 383.465 304.697 383.585 305.757 384.091 C 310.157 386.181 312.837 392.469 310.407 396.882 C 308.937 399.512 306.497 400.521 303.797 401.391 C 300.337 402.317 291.007 402.08 287.077 402.083 L 263.257 402.097 L 226.505 402.097 C 221.429 402.094 203.681 402.63 200.042 401.047 C 197.681 400.042 195.835 398.128 194.932 395.743 C 194.002 393.247 194.164 390.48 195.377 388.108 C 196.735 385.434 198.745 384.449 201.5 383.606 Z" style="stroke-width: 1;"/>
  <path fill="rgb(254,254,254)" d="M 212.015 408.182 C 232.121 407.501 253.777 407.91 274.017 408.056 L 292.147 408.165 C 299.557 408.2 310.307 406.386 311.227 416.423 C 311.467 418.771 310.727 421.108 309.177 422.897 C 305.787 426.77 298.387 426.247 293.257 426.495 C 272.767 426.87 252.287 426.925 231.802 426.663 C 222.337 426.615 212.698 426.87 203.254 426.247 C 192.5 425.537 190.575 410.048 201.961 408.589 C 205.127 408.182 208.787 408.259 212.015 408.182 Z" style="stroke-width: 1;"/>
  <path fill="rgb(254,254,254)" d="M 282.487 189.401 C 280.217 182.851 270.167 174.141 265.097 169.061 C 260.337 164.361 253.667 159.671 251.117 153.361 C 246.677 143.201 260.267 133.441 269.037 139.021 C 278.757 145.201 287.127 155.971 294.317 164.821 C 296.087 166.991 296.487 168.001 299.087 169.271 L 298.857 169.491 C 295.347 172.701 292.627 173.991 289.617 177.921 C 287.607 180.531 284.357 187.531 282.487 189.401 Z" style="stroke-width: 1;"/>
  <path fill="rgb(254,254,254)" d="M 229.447 431.864 C 237.266 431.396 246.457 431.885 254.427 431.73 C 261.647 431.706 268.317 431.682 275.577 431.868 C 283.057 432.064 288.667 438.177 284.607 445.364 C 283.007 448.207 280.487 449.205 277.397 449.991 C 273.087 450.324 268.177 450.255 263.817 450.183 C 252.677 450.022 243.039 450.661 231.776 450.304 C 222.423 450.008 216.841 444.335 221.859 434.99 C 223.048 432.777 227.023 432.15 229.447 431.864 Z" style="stroke-width: 1;"/>
  <path fill="rgb(247,226,81)" d="M 105.16 254.211 C 110.873 253.631 110.307 256.791 110.016 261.251 C 106.587 263.151 103.134 263.481 99.837 264.891 C 92.608 268.001 85.463 270.851 77.929 273.191 C 75.831 272.841 72.25 271.851 72.396 269.631 C 72.82 263.131 89.325 260.051 94.045 257.901 C 97.436 256.371 102.63 254.721 105.16 254.211 Z" style="stroke-width: 1;"/>
  <path fill="rgb(247,226,81)" d="M 173.547 334.71 C 174.36 334.687 175.203 334.645 176.015 334.71 C 176.887 334.779 177.712 335.155 178.213 335.888 C 178.772 336.707 178.837 337.613 178.699 338.555 C 177.928 343.846 164.191 367.142 160.15 370.226 C 156.72 369.72 153.71 367.297 155.618 363.865 C 158.883 357.997 168.496 337.206 173.547 334.71 Z" style="stroke-width: 1;"/>
  <path fill="rgb(247,226,81)" d="M 108.038 83.351 C 113.996 83.351 120.097 90.191 124.535 93.781 C 128.793 97.221 134.35 101.191 137.164 105.881 C 138.542 108.181 136.643 109.701 135.03 110.901 C 134.658 110.931 134.287 110.941 133.916 110.931 C 132.798 110.911 131.67 110.751 130.713 110.161 C 128.342 108.701 125.962 106.521 123.769 104.751 C 119.059 100.971 113.778 97.251 109.516 93.001 C 108.051 91.541 105.171 88.351 105.532 86.261 C 105.799 84.711 106.819 84.211 108.038 83.351 Z" style="stroke-width: 1;"/>
  <path fill="rgb(247,226,81)" d="M 395.507 83.031 C 397.357 82.931 398.257 83.271 399.677 84.481 C 400.887 86.901 399.397 89.651 397.587 91.381 C 391.887 96.781 385.307 101.281 379.507 106.591 C 377.567 108.371 375.787 109.961 373.447 111.181 C 371.507 110.961 369.197 110.801 368.087 109.061 C 366.857 103.711 376.967 97.221 380.517 94.311 C 385.117 90.551 389.987 85.271 395.507 83.031 Z" style="stroke-width: 1;"/>
  <path fill="rgb(247,226,81)" d="M 371.927 300.212 C 372.487 300.27 372.977 300.364 373.507 300.543 C 374.987 301.04 393.387 316.063 395.577 318.122 C 397.027 319.482 398.437 321.01 399.327 322.798 C 399.877 323.906 400.337 325.327 399.777 326.522 C 399.187 327.775 397.947 328.013 396.727 328.305 C 394.087 327.51 392.757 327.059 390.417 325.413 C 387.517 323.379 385.077 320.996 382.317 318.704 C 378.127 315.225 372.987 312.013 369.617 307.731 C 368.587 306.43 368.177 303.998 367.867 302.364 C 369.557 301.239 370.107 300.993 371.927 300.212 Z" style="stroke-width: 1;"/>
  <path fill="rgb(247,226,81)" d="M 345.127 41.751 C 353.857 41.151 349.327 50.171 346.637 53.901 C 342.637 59.421 336.737 73.311 331.587 77.001 C 323.797 76.471 326.337 70.431 329.237 66.251 C 333.117 60.661 339.957 45.111 345.127 41.751 Z" style="stroke-width: 1;"/>
  <path fill="rgb(247,226,81)" d="M 158.711 41.721 C 164.152 42.761 168.139 52.641 170.759 57.011 C 173.025 60.781 179.269 70.051 178.972 74.151 C 178.184 75.921 176.992 76.261 175.209 76.981 C 173.243 76.511 171.648 75.461 170.651 73.771 C 168.11 69.501 154.463 48.411 154.913 44.931 C 155.819 43.061 156.815 42.621 158.711 41.721 Z" style="stroke-width: 1;"/>
  <path fill="rgb(247,226,81)" d="M 397.597 254.161 C 404.127 253.811 425.367 263.071 431.797 266.241 C 433.367 267.011 432.197 271.161 430.697 272.461 C 422.157 272.671 404.167 264.681 395.977 260.941 C 393.957 260.011 395.857 255.571 397.597 254.161 Z" style="stroke-width: 1;"/>
  <path fill="rgb(247,226,81)" d="M 131.965 301.012 C 134.679 300.785 138.694 300.718 137.108 304.95 C 135.074 310.38 129.067 313.943 124.671 317.457 C 119.996 321.189 115.495 325.637 110.026 328.16 C 109.259 328.294 107.795 328.522 107.319 328.098 C 103.197 324.336 106.226 320.696 109.845 318.277 C 116.217 314.016 125.208 303.891 131.965 301.012 Z" style="stroke-width: 1;"/>
  <path fill="rgb(247,226,81)" d="M 428.327 138.461 C 432.557 139.221 433.937 142.991 431.667 144.951 C 425.937 149.881 414.147 151.221 407.207 154.881 C 405.037 156.031 401.377 157.131 399.677 157.411 C 393.847 156.111 393.237 150.831 397.517 149.051 C 407.187 145.021 418.577 142.341 428.327 138.461 Z" style="stroke-width: 1;"/>
  <path fill="rgb(247,226,81)" d="M 328.727 334.641 C 331.027 334.624 332.457 334.518 333.987 336.5 C 337.407 340.948 339.897 345.987 342.677 350.826 C 344.957 354.922 347.827 358.84 349.647 363.156 C 350.807 365.924 350.637 367.49 348.237 369.287 C 346.857 369.479 345.127 369.872 343.957 369.135 C 341.057 365.256 326.687 342.135 326.617 338.841 C 326.577 337.013 327.497 335.888 328.727 334.641 Z" style="stroke-width: 1;"/>
  <path fill="rgb(247,226,81)" d="M 75.842 138.381 C 79.455 138.501 106.878 148.561 110.394 151.171 C 110.349 151.821 110.286 152.471 110.207 153.111 C 109.919 155.351 109.617 156.101 107.84 157.441 C 106.969 157.431 106.101 157.431 105.237 157.281 C 101.399 156.661 75.148 147.081 73.565 144.851 C 72.923 143.951 72.559 142.991 72.809 141.871 C 73.198 140.141 74.419 139.291 75.842 138.381 Z" style="stroke-width: 1;"/>
  <path fill="rgb(247,226,81)" d="M 284.317 20.091 C 289.717 19.911 289.837 23.211 288.997 27.681 C 287.167 37.331 286.057 47.411 283.117 56.781 C 282.937 57.341 281.877 58.171 281.397 58.521 C 279.767 58.651 277.467 58.911 276.817 56.821 C 275.467 52.221 276.487 46.651 277.277 41.971 C 278.427 35.181 280.007 28.251 282.037 21.651 C 282.307 20.751 283.537 20.421 284.317 20.091 Z" style="stroke-width: 1;"/>
  <path fill="rgb(247,226,81)" d="M 219.417 19.661 C 219.819 19.671 220.221 19.681 220.621 19.711 C 221.655 19.811 222.322 20.131 222.96 20.951 C 224.942 23.541 229.912 51.111 229.321 54.801 C 229.01 56.741 228.271 57.461 226.691 58.551 C 226.055 58.541 225.389 58.551 224.762 58.431 C 223.784 58.261 223.021 57.511 222.522 56.691 C 219.833 52.331 215.664 26.941 216.854 22.101 C 217.189 20.751 218.285 20.301 219.417 19.661 Z" style="stroke-width: 1;"/>
  <path fill="rgb(247,226,81)" d="M 64.14 201.511 C 74.975 201.511 87.905 200.941 98.702 202.131 C 101.531 202.441 102.642 208.311 98.89 209.171 C 88.131 210.081 76.47 209.561 65.622 209.601 C 60.51 209.631 60.586 204.231 64.14 201.511 Z" style="stroke-width: 1;"/>
  <path fill="rgb(247,226,81)" d="M 410.447 201.221 C 415.337 200.901 421.677 201.091 426.577 201.391 C 430.747 201.651 443.447 199.741 443.977 205.241 C 444.077 206.361 443.697 207.471 442.937 208.301 C 441.807 209.491 440.707 209.341 439.057 209.431 C 434.457 209.451 408.177 210.221 406.047 208.931 C 405.227 208.441 404.657 207.741 404.417 206.821 C 404.077 205.541 404.457 204.321 405.207 203.261 C 406.387 201.581 408.577 201.471 410.447 201.221 Z" style="stroke-width: 1;"/>
</svg>