<svg width="51" height="49" viewBox="0 0 51 49" fill="none" xmlns="http://www.w3.org/2000/svg">
<path fill-rule="evenodd" clip-rule="evenodd" d="M50.5 24.5C50.5 37.7547 39.307 48.5 25.5 48.5C11.6929 48.5 0.5 37.7547 0.5 24.5C0.5 11.2452 11.6929 0.5 25.5 0.5C39.307 0.5 50.5 11.2452 50.5 24.5ZM26.3958 18.2179C23.9642 19.1888 19.1044 21.1983 11.8164 24.2466C10.633 24.6985 10.013 25.1406 9.95657 25.5726C9.8612 26.3031 10.814 26.5906 12.1114 26.9823C12.2879 27.0356 12.4707 27.0908 12.6582 27.1491C13.9346 27.5475 15.6517 28.0136 16.5443 28.0321C17.354 28.0489 18.2577 27.7285 19.2555 27.0706C26.0648 22.658 29.58 20.4277 29.8005 20.3794C29.9563 20.3456 30.172 20.3029 30.3183 20.4277C30.4645 20.5525 30.45 20.7886 30.4345 20.852C30.3403 21.2384 26.6003 24.5763 24.6648 26.3036C24.0615 26.8422 23.6335 27.224 23.546 27.3114C23.35 27.5067 23.1503 27.6915 22.9583 27.8691C21.7725 28.9666 20.883 29.7896 23.0075 31.1336C24.0283 31.7794 24.8453 32.3134 25.6603 32.8462C26.5503 33.4282 27.438 34.0086 28.5868 34.7314C28.8793 34.9155 29.1588 35.1068 29.431 35.293C30.4668 36.002 31.3973 36.639 32.547 36.5372C33.215 36.4784 33.905 35.8753 34.2555 34.0767C35.0838 29.8263 36.7118 20.6168 37.088 16.8219C37.121 16.4895 37.0795 16.064 37.046 15.8772C37.0128 15.6904 36.9433 15.4242 36.6903 15.2272C36.3908 14.9939 35.9283 14.9445 35.7215 14.948C34.7813 14.9639 33.3385 15.4456 26.3958 18.2179Z" stroke="white" stroke-linejoin="round"/>
</svg>
